# xmcd CD database file
#
# Track frame offsets:
#	150
#	13191
#	40193
#	50338
#	74156
#	80556
#	110672
#	126699
#	142148
#	162603
#	186194
#	205118
#	217376
#	243144
#	262757
#	282574
#	312661
#
# Disc length: 4378 seconds
#
# Revision: 0
# Processed by: cddbd v1.5.1PL0 Copyright (c) Steve Scherf et al.
# Submitted via: CDex 1.51
#
DISCID=1b111811
DTITLE=Vangelis - Italian Song
DYEAR=1900
DGENRE=New Age
TTITLE0=Italian Song
TTITLE1=La petite fille de la mer
TTITLE2=Bon Voyage
TTITLE3=Pulstar
TTITLE4=Apocalypse Des Animaux
TTITLE5=Spanish Harbour
TTITLE6=Titles
TTITLE7=Moment 2
TTITLE8=The will of the wind
TTITLE9=Dervish D
TTITLE10=Side Streets
TTITLE11=The Tao Of Love
TTITLE12=Alpha
TTITLE13=Glorianna (Hymn A La Femme)
TTITLE14=Prelude
TTITLE15=Losing Sleep
TTITLE16=Rotations Logic
EXTD=
EXTT0=
EXTT1=
EXTT2=
EXTT3=
EXTT4=
EXTT5=
EXTT6=
EXTT7=
EXTT8=
EXTT9=
EXTT10=
EXTT11=
EXTT12=
EXTT13=
EXTT14=
EXTT15=
EXTT16=
PLAYORDER=
